<svg xmlns="http://www.w3.org/2000/svg" width="1721" height="796" fill="none" viewBox="0 0 1721 796"><path fill="url(#a)" d="M0 0h1721v796H0z"/><g clip-path="url(#b)"><path fill="#424242" d="M81.932 481.034v-3.125h21.818v3.125h-9.148V507H91.08v-25.966h-9.147Zm30.153 12.841V507h-3.353v-29.091h3.353v10.682h.284a6.164 6.164 0 0 1 2.301-2.685c1.032-.672 2.405-1.008 4.119-1.008 1.487 0 2.789.298 3.906.895 1.118.587 1.984 1.491 2.6 2.713.625 1.212.937 2.755.937 4.63V507h-3.352v-13.636c0-1.733-.45-3.073-1.349-4.02-.891-.957-2.126-1.435-3.708-1.435-1.098 0-2.083.232-2.954.696-.862.464-1.544 1.141-2.046 2.031-.492.891-.738 1.97-.738 3.239Zm29.428 13.58c-2.102 0-3.916-.464-5.441-1.393-1.515-.937-2.684-2.244-3.508-3.92-.814-1.686-1.222-3.646-1.222-5.881 0-2.234.408-4.204 1.222-5.909.824-1.714 1.97-3.049 3.437-4.005 1.478-.966 3.201-1.449 5.171-1.449 1.136 0 2.258.189 3.366.568 1.108.379 2.117.994 3.026 1.846.909.843 1.633 1.961 2.173 3.353.54 1.392.81 3.106.81 5.142v1.42h-16.818v-2.897h13.409c0-1.232-.246-2.33-.739-3.296a5.565 5.565 0 0 0-2.074-2.287c-.89-.559-1.941-.838-3.153-.838-1.335 0-2.491.332-3.466.994a6.546 6.546 0 0 0-2.23 2.557 7.509 7.509 0 0 0-.781 3.381v1.932c0 1.647.284 3.044.852 4.19.578 1.136 1.378 2.003 2.4 2.599 1.023.588 2.212.881 3.566.881.88 0 1.676-.123 2.386-.369a5.123 5.123 0 0 0 1.861-1.136c.521-.512.923-1.146 1.207-1.904l3.239.909a7.177 7.177 0 0 1-1.719 2.898c-.805.824-1.799 1.468-2.983 1.932-1.183.454-2.514.682-3.991.682Zm28.736-29.546V507h-3.353v-29.091h3.353ZM176.388 507v-21.818h3.353V507h-3.353Zm1.705-25.455a2.382 2.382 0 0 1-1.69-.667c-.464-.445-.696-.98-.696-1.605s.232-1.16.696-1.605a2.383 2.383 0 0 1 1.69-.668c.653 0 1.212.223 1.676.668.474.445.71.98.71 1.605s-.236 1.16-.71 1.605a2.335 2.335 0 0 1-1.676.667Zm16.595 34.091c-1.62 0-3.012-.208-4.177-.625-1.164-.407-2.135-.947-2.912-1.619-.767-.663-1.377-1.373-1.832-2.131l2.671-1.875c.303.398.686.853 1.15 1.364.464.521 1.099.971 1.903 1.349.815.389 1.88.583 3.197.583 1.761 0 3.214-.426 4.36-1.279 1.146-.852 1.719-2.187 1.719-4.005v-4.432h-.284c-.246.398-.597.89-1.051 1.477-.445.578-1.089 1.094-1.932 1.548-.833.446-1.96.668-3.381.668-1.761 0-3.342-.417-4.744-1.25-1.392-.833-2.495-2.045-3.31-3.636-.805-1.591-1.207-3.523-1.207-5.796 0-2.235.393-4.181 1.179-5.838.786-1.666 1.88-2.954 3.281-3.863 1.402-.919 3.021-1.378 4.858-1.378 1.421 0 2.547.236 3.381.71.843.464 1.487.994 1.932 1.591.454.587.805 1.07 1.051 1.449h.341v-3.466h3.238v22.443c0 1.875-.426 3.4-1.278 4.574-.843 1.184-1.979 2.05-3.409 2.599-1.421.559-3.002.838-4.744.838Zm-.114-11.988c1.345 0 2.481-.308 3.409-.924.928-.615 1.633-1.501 2.116-2.656.483-1.155.725-2.538.725-4.148 0-1.572-.237-2.959-.71-4.161-.474-1.203-1.175-2.145-2.103-2.827-.928-.682-2.073-1.023-3.437-1.023-1.421 0-2.604.36-3.551 1.08-.938.719-1.643 1.685-2.117 2.897-.464 1.212-.696 2.557-.696 4.034 0 1.516.237 2.856.71 4.02.483 1.156 1.194 2.065 2.131 2.728.947.653 2.121.98 3.523.98Zm19.034-9.773V507h-3.352v-29.091h3.352v10.682h.284a6.164 6.164 0 0 1 2.301-2.685c1.032-.672 2.405-1.008 4.119-1.008 1.487 0 2.789.298 3.907.895 1.117.587 1.984 1.491 2.599 2.713.625 1.212.938 2.755.938 4.63V507h-3.353v-13.636c0-1.733-.449-3.073-1.349-4.02-.89-.957-2.126-1.435-3.707-1.435-1.099 0-2.084.232-2.955.696-.862.464-1.544 1.141-2.045 2.031-.493.891-.739 1.97-.739 3.239Zm29.769-8.693v2.841H232.07v-2.841h11.307Zm-8.011-5.227h3.352v20.795c0 .947.137 1.657.412 2.131.284.464.644.776 1.08.937.445.152.913.227 1.406.227.369 0 .672-.018.909-.056l.568-.114.682 3.011a6.681 6.681 0 0 1-.952.256c-.407.095-.923.142-1.548.142a6.75 6.75 0 0 1-2.784-.611 5.526 5.526 0 0 1-2.245-1.861c-.587-.833-.88-1.884-.88-3.153v-21.704ZM253.363 507l-6.648-21.818h3.523l4.716 16.704h.227l4.659-16.704h3.58l4.602 16.648h.227l4.716-16.648h3.523L269.84 507h-3.295l-4.773-16.761h-.341L256.658 507h-3.295Zm35.962.455c-2.102 0-3.915-.464-5.44-1.393-1.515-.937-2.685-2.244-3.509-3.92-.814-1.686-1.221-3.646-1.221-5.881 0-2.234.407-4.204 1.221-5.909.824-1.714 1.97-3.049 3.438-4.005 1.477-.966 3.201-1.449 5.17-1.449 1.137 0 2.259.189 3.367.568 1.108.379 2.116.994 3.025 1.846.91.843 1.634 1.961 2.174 3.353.539 1.392.809 3.106.809 5.142v1.42h-16.818v-2.897h13.409c0-1.232-.246-2.33-.738-3.296a5.572 5.572 0 0 0-2.074-2.287c-.89-.559-1.942-.838-3.154-.838-1.335 0-2.49.332-3.466.994a6.554 6.554 0 0 0-2.23 2.557 7.522 7.522 0 0 0-.781 3.381v1.932c0 1.647.284 3.044.852 4.19.578 1.136 1.378 2.003 2.401 2.599 1.023.588 2.211.881 3.565.881.881 0 1.676-.123 2.387-.369a5.12 5.12 0 0 0 1.86-1.136c.521-.512.924-1.146 1.208-1.904l3.238.909a7.164 7.164 0 0 1-1.718 2.898c-.805.824-1.8 1.468-2.983 1.932-1.184.454-2.514.682-3.992.682Zm14.134-.455v-21.818h3.352V507h-3.352Zm1.704-25.455a2.382 2.382 0 0 1-1.69-.667c-.464-.445-.696-.98-.696-1.605s.232-1.16.696-1.605a2.383 2.383 0 0 1 1.69-.668c.654 0 1.212.223 1.676.668.474.445.711.98.711 1.605s-.237 1.16-.711 1.605a2.333 2.333 0 0 1-1.676.667Zm16.595 34.091c-1.62 0-3.012-.208-4.176-.625-1.165-.407-2.136-.947-2.912-1.619-.767-.663-1.378-1.373-1.833-2.131l2.671-1.875c.303.398.686.853 1.15 1.364.464.521 1.099.971 1.904 1.349.814.389 1.88.583 3.196.583 1.761 0 3.215-.426 4.361-1.279 1.145-.852 1.718-2.187 1.718-4.005v-4.432h-.284c-.246.398-.596.89-1.051 1.477-.445.578-1.089 1.094-1.932 1.548-.833.446-1.96.668-3.38.668-1.762 0-3.343-.417-4.745-1.25-1.392-.833-2.495-2.045-3.309-3.636-.805-1.591-1.208-3.523-1.208-5.796 0-2.235.393-4.181 1.179-5.838.786-1.666 1.88-2.954 3.281-3.863 1.402-.919 3.021-1.378 4.858-1.378 1.421 0 2.548.236 3.381.71.843.464 1.487.994 1.932 1.591.454.587.805 1.07 1.051 1.449h.341v-3.466h3.239v22.443c0 1.875-.427 3.4-1.279 4.574-.843 1.184-1.979 2.05-3.409 2.599-1.42.559-3.002.838-4.744.838Zm-.114-11.988c1.345 0 2.481-.308 3.409-.924.928-.615 1.634-1.501 2.117-2.656.483-1.155.724-2.538.724-4.148 0-1.572-.237-2.959-.71-4.161-.474-1.203-1.174-2.145-2.102-2.827-.928-.682-2.074-1.023-3.438-1.023-1.42 0-2.604.36-3.551 1.08-.937.719-1.643 1.685-2.116 2.897-.464 1.212-.696 2.557-.696 4.034 0 1.516.236 2.856.71 4.02.483 1.156 1.193 2.065 2.13 2.728.947.653 2.122.98 3.523.98Zm19.034-9.773V507h-3.352v-29.091h3.352v10.682h.284a6.177 6.177 0 0 1 2.301-2.685c1.033-.672 2.406-1.008 4.12-1.008 1.487 0 2.789.298 3.906.895 1.117.587 1.984 1.491 2.599 2.713.625 1.212.938 2.755.938 4.63V507h-3.352v-13.636c0-1.733-.45-3.073-1.35-4.02-.89-.957-2.126-1.435-3.707-1.435-1.099 0-2.083.232-2.955.696-.861.464-1.543 1.141-2.045 2.031-.493.891-.739 1.97-.739 3.239Zm29.769-8.693v2.841h-11.306v-2.841h11.306Zm-8.011-5.227h3.352v20.795c0 .947.138 1.657.412 2.131.284.464.644.776 1.08.937a4.32 4.32 0 0 0 1.406.227c.369 0 .672-.018.909-.056l.568-.114.682 3.011a6.644 6.644 0 0 1-.952.256c-.407.095-.923.142-1.548.142a6.75 6.75 0 0 1-2.784-.611 5.517 5.517 0 0 1-2.244-1.861c-.587-.833-.881-1.884-.881-3.153v-21.704Zm27.656-2.046V507h-3.352v-29.091h3.352Zm6.14 29.091v-21.818h3.353V507h-3.353Zm1.705-25.455a2.385 2.385 0 0 1-1.691-.667c-.464-.445-.696-.98-.696-1.605s.232-1.16.696-1.605a2.386 2.386 0 0 1 1.691-.668c.653 0 1.212.223 1.676.668.473.445.71.98.71 1.605s-.237 1.16-.71 1.605a2.335 2.335 0 0 1-1.676.667ZM406.179 507v-29.091h3.352v10.739h.284c.247-.379.587-.862 1.023-1.449.445-.597 1.08-1.127 1.903-1.591.834-.474 1.961-.71 3.381-.71 1.837 0 3.457.459 4.858 1.378 1.402.918 2.495 2.22 3.281 3.906.786 1.685 1.179 3.674 1.179 5.966 0 2.31-.393 4.313-1.179 6.008-.786 1.686-1.875 2.993-3.267 3.921-1.392.918-2.997 1.378-4.815 1.378-1.402 0-2.524-.232-3.367-.696-.842-.474-1.491-1.009-1.946-1.606a22.136 22.136 0 0 1-1.051-1.505h-.397V507h-3.239Zm3.295-10.909c0 1.648.242 3.101.725 4.361.483 1.25 1.188 2.23 2.116 2.94.928.701 2.065 1.051 3.409 1.051 1.402 0 2.571-.369 3.509-1.108.947-.748 1.657-1.752 2.131-3.011.483-1.269.724-2.68.724-4.233 0-1.534-.237-2.917-.71-4.148-.464-1.24-1.17-2.22-2.117-2.94-.937-.729-2.116-1.094-3.537-1.094-1.363 0-2.509.346-3.437 1.037-.928.682-1.629 1.638-2.102 2.869-.474 1.222-.711 2.647-.711 4.276ZM430.568 507v-21.818h3.239v3.295h.227c.398-1.079 1.118-1.955 2.159-2.628 1.042-.672 2.216-1.008 3.523-1.008.246 0 .554.005.923.014.37.01.649.024.838.043v3.409a9.669 9.669 0 0 0-.781-.128 7.722 7.722 0 0 0-1.264-.099c-1.061 0-2.008.222-2.841.667a5.041 5.041 0 0 0-1.96 1.818c-.474.767-.711 1.643-.711 2.628V507h-3.352Zm21.303.511c-1.382 0-2.637-.26-3.764-.781-1.127-.53-2.022-1.292-2.684-2.287-.663-1.004-.995-2.216-.995-3.636 0-1.25.246-2.263.739-3.04a5.216 5.216 0 0 1 1.974-1.847 10.384 10.384 0 0 1 2.728-.994 33.396 33.396 0 0 1 3.025-.54c1.326-.17 2.401-.298 3.225-.383.833-.095 1.439-.251 1.818-.469.388-.218.582-.597.582-1.136v-.114c0-1.401-.383-2.49-1.15-3.267-.758-.776-1.909-1.165-3.452-1.165-1.6 0-2.855.351-3.764 1.051-.909.701-1.549 1.449-1.918 2.245l-3.182-1.137c.568-1.325 1.326-2.358 2.273-3.096a8.523 8.523 0 0 1 3.125-1.563 12.973 12.973 0 0 1 3.352-.454c.701 0 1.506.085 2.415.255a7.73 7.73 0 0 1 2.656 1.009c.862.511 1.577 1.283 2.145 2.315.568 1.032.852 2.415.852 4.148V507h-3.352v-2.955h-.17c-.228.474-.606.981-1.137 1.52-.53.54-1.235.999-2.116 1.378-.881.379-1.956.568-3.225.568Zm.512-3.011c1.326 0 2.443-.26 3.352-.781.919-.521 1.61-1.193 2.074-2.017.473-.824.71-1.691.71-2.6v-3.068c-.142.171-.454.327-.937.469-.474.132-1.023.251-1.648.355-.616.095-1.217.18-1.804.256-.578.066-1.046.123-1.406.17-.871.114-1.686.298-2.443.554-.749.246-1.355.62-1.819 1.122-.454.493-.681 1.165-.681 2.017 0 1.165.43 2.046 1.292 2.642.871.587 1.975.881 3.31.881Zm15.607 2.5v-21.818h3.239v3.295h.227c.398-1.079 1.117-1.955 2.159-2.628 1.042-.672 2.216-1.008 3.523-1.008.246 0 .554.005.923.014.369.01.649.024.838.043v3.409a9.669 9.669 0 0 0-.781-.128 7.722 7.722 0 0 0-1.264-.099c-1.061 0-2.008.222-2.841.667a5.041 5.041 0 0 0-1.96 1.818c-.474.767-.711 1.643-.711 2.628V507h-3.352Zm17.706 8.182a7.393 7.393 0 0 1-1.52-.142c-.445-.085-.753-.171-.923-.256l.852-2.954c.815.208 1.534.284 2.159.227.625-.057 1.179-.336 1.662-.838.493-.493.942-1.293 1.35-2.401l.625-1.704-8.069-21.932h3.637l6.022 17.386h.228l6.022-17.386h3.637l-9.262 25c-.416 1.127-.932 2.059-1.548 2.798-.615.748-1.33 1.302-2.145 1.662-.805.36-1.714.54-2.727.54Zm40.845-30v2.841h-11.307v-2.841h11.307Zm-8.011-5.227h3.352v20.795c0 .947.137 1.657.412 2.131.284.464.644.776 1.08.937.445.152.913.227 1.406.227.369 0 .672-.018.909-.056l.568-.114.682 3.011a6.681 6.681 0 0 1-.952.256c-.407.095-.923.142-1.548.142a6.75 6.75 0 0 1-2.784-.611 5.517 5.517 0 0 1-2.244-1.861c-.588-.833-.881-1.884-.881-3.153v-21.704Zm16.875 13.92V507h-3.352v-29.091h3.352v10.682h.284a6.164 6.164 0 0 1 2.301-2.685c1.032-.672 2.405-1.008 4.119-1.008 1.487 0 2.789.298 3.907.895 1.117.587 1.984 1.491 2.599 2.713.625 1.212.938 2.755.938 4.63V507H546.2v-13.636c0-1.733-.45-3.073-1.349-4.02-.89-.957-2.126-1.435-3.708-1.435-1.098 0-2.083.232-2.954.696-.862.464-1.544 1.141-2.046 2.031-.492.891-.738 1.97-.738 3.239Zm26.701 13.636c-1.383 0-2.637-.26-3.764-.781-1.127-.53-2.022-1.292-2.685-2.287-.663-1.004-.994-2.216-.994-3.636 0-1.25.246-2.263.738-3.04a5.226 5.226 0 0 1 1.975-1.847 10.39 10.39 0 0 1 2.727-.994 33.417 33.417 0 0 1 3.026-.54c1.325-.17 2.4-.298 3.224-.383.833-.095 1.439-.251 1.818-.469.388-.218.583-.597.583-1.136v-.114c0-1.401-.384-2.49-1.151-3.267-.758-.776-1.908-1.165-3.452-1.165-1.6 0-2.855.351-3.764 1.051-.909.701-1.548 1.449-1.918 2.245l-3.181-1.137c.568-1.325 1.325-2.358 2.272-3.096a8.53 8.53 0 0 1 3.125-1.563 12.98 12.98 0 0 1 3.353-.454c.7 0 1.505.085 2.414.255a7.743 7.743 0 0 1 2.657 1.009c.861.511 1.576 1.283 2.145 2.315.568 1.032.852 2.415.852 4.148V507h-3.352v-2.955h-.171c-.227.474-.606.981-1.136 1.52-.531.54-1.236.999-2.117 1.378-.88.379-1.955.568-3.224.568Zm.511-3.011c1.326 0 2.443-.26 3.352-.781.919-.521 1.61-1.193 2.074-2.017a5.139 5.139 0 0 0 .711-2.6v-3.068c-.142.171-.455.327-.938.469a15.9 15.9 0 0 1-1.648.355c-.615.095-1.217.18-1.804.256-.577.066-1.046.123-1.406.17-.871.114-1.686.298-2.443.554-.748.246-1.354.62-1.818 1.122-.455.493-.682 1.165-.682 2.017 0 1.165.431 2.046 1.293 2.642.871.587 1.974.881 3.309.881Zm25.096-19.318v2.841h-11.307v-2.841h11.307Zm-8.011-5.227h3.352v20.795c0 .947.137 1.657.412 2.131.284.464.644.776 1.079.937.446.152.914.227 1.407.227.369 0 .672-.018.909-.056l.568-.114.682 3.011a6.681 6.681 0 0 1-.952.256c-.407.095-.923.142-1.548.142a6.75 6.75 0 0 1-2.784-.611 5.526 5.526 0 0 1-2.245-1.861c-.587-.833-.88-1.884-.88-3.153v-21.704ZM604.006 507v-21.818h3.238v3.409h.284c.455-1.165 1.189-2.069 2.202-2.713 1.013-.654 2.23-.98 3.651-.98 1.439 0 2.637.326 3.593.98.966.644 1.719 1.548 2.259 2.713h.227c.559-1.127 1.397-2.022 2.514-2.685 1.118-.672 2.458-1.008 4.02-1.008 1.951 0 3.547.611 4.787 1.832 1.241 1.212 1.861 3.101 1.861 5.668V507h-3.352v-14.602c0-1.61-.441-2.761-1.321-3.452-.881-.691-1.918-1.037-3.111-1.037-1.534 0-2.723.464-3.565 1.392-.843.919-1.265 2.083-1.265 3.494V507h-3.409v-14.943c0-1.241-.402-2.24-1.207-2.997-.805-.767-1.842-1.151-3.111-1.151-.871 0-1.685.232-2.443.696-.748.464-1.354 1.108-1.818 1.932-.455.814-.682 1.757-.682 2.827V507h-3.352Zm41.186.511c-1.383 0-2.638-.26-3.764-.781-1.127-.53-2.022-1.292-2.685-2.287-.663-1.004-.994-2.216-.994-3.636 0-1.25.246-2.263.738-3.04a5.226 5.226 0 0 1 1.975-1.847 10.39 10.39 0 0 1 2.727-.994 33.458 33.458 0 0 1 3.025-.54c1.326-.17 2.401-.298 3.225-.383.833-.095 1.439-.251 1.818-.469.388-.218.582-.597.582-1.136v-.114c0-1.401-.383-2.49-1.15-3.267-.758-.776-1.908-1.165-3.452-1.165-1.6 0-2.855.351-3.764 1.051-.909.701-1.548 1.449-1.918 2.245l-3.181-1.137c.568-1.325 1.325-2.358 2.272-3.096a8.53 8.53 0 0 1 3.125-1.563 12.98 12.98 0 0 1 3.353-.454c.7 0 1.505.085 2.414.255a7.743 7.743 0 0 1 2.657 1.009c.861.511 1.576 1.283 2.144 2.315.569 1.032.853 2.415.853 4.148V507h-3.353v-2.955h-.17c-.227.474-.606.981-1.136 1.52-.531.54-1.236.999-2.117 1.378-.88.379-1.955.568-3.224.568Zm.511-3.011c1.326 0 2.443-.26 3.352-.781.919-.521 1.61-1.193 2.074-2.017.474-.824.71-1.691.71-2.6v-3.068c-.142.171-.454.327-.937.469a15.9 15.9 0 0 1-1.648.355c-.615.095-1.217.18-1.804.256-.577.066-1.046.123-1.406.17-.871.114-1.686.298-2.443.554-.748.246-1.354.62-1.818 1.122-.455.493-.682 1.165-.682 2.017 0 1.165.431 2.046 1.292 2.642.872.587 1.975.881 3.31.881Zm18.732-5.455-.056-4.147h.681l9.546-9.716h4.148l-10.171 10.284h-.284l-3.864 3.579ZM661.31 507v-29.091h3.353V507h-3.353Zm13.864 0-8.523-10.795 2.387-2.33L679.435 507h-4.261Zm16.143.455c-2.102 0-3.915-.464-5.44-1.393-1.515-.937-2.685-2.244-3.508-3.92-.815-1.686-1.222-3.646-1.222-5.881 0-2.234.407-4.204 1.222-5.909.823-1.714 1.969-3.049 3.437-4.005 1.477-.966 3.201-1.449 5.171-1.449 1.136 0 2.258.189 3.366.568 1.108.379 2.117.994 3.026 1.846.909.843 1.633 1.961 2.173 3.353.54 1.392.81 3.106.81 5.142v1.42h-16.819v-2.897h13.409c0-1.232-.246-2.33-.738-3.296a5.565 5.565 0 0 0-2.074-2.287c-.89-.559-1.941-.838-3.153-.838-1.336 0-2.491.332-3.466.994a6.538 6.538 0 0 0-2.23 2.557 7.51 7.51 0 0 0-.782 3.381v1.932c0 1.647.284 3.044.853 4.19.577 1.136 1.377 2.003 2.4 2.599 1.023.588 2.211.881 3.565.881.881 0 1.677-.123 2.387-.369a5.123 5.123 0 0 0 1.861-1.136c.52-.512.923-1.146 1.207-1.904l3.239.909a7.177 7.177 0 0 1-1.719 2.898c-.805.824-1.799 1.468-2.983 1.932-1.184.454-2.514.682-3.992.682Zm29.589-17.387-3.012.852a5.614 5.614 0 0 0-.838-1.463c-.36-.483-.852-.88-1.477-1.193-.625-.312-1.425-.469-2.401-.469-1.335 0-2.448.308-3.338.924-.88.606-1.321 1.378-1.321 2.315 0 .833.303 1.492.909 1.975.606.482 1.553.885 2.841 1.207l3.239.795c1.951.474 3.404 1.198 4.361 2.174.956.966 1.434 2.211 1.434 3.735 0 1.25-.36 2.368-1.079 3.353-.711.985-1.705 1.761-2.983 2.329-1.279.568-2.765.853-4.46.853-2.226 0-4.068-.483-5.526-1.449-1.458-.966-2.382-2.377-2.77-4.233l3.182-.796c.303 1.175.876 2.055 1.719 2.642.852.587 1.965.881 3.338.881 1.562 0 2.803-.331 3.721-.994.928-.673 1.392-1.478 1.392-2.415 0-.758-.265-1.392-.795-1.903-.53-.521-1.345-.91-2.443-1.165l-3.637-.853c-1.998-.473-3.466-1.207-4.403-2.201-.928-1.004-1.392-2.259-1.392-3.764 0-1.232.346-2.321 1.037-3.267.701-.947 1.652-1.691 2.855-2.231 1.212-.539 2.585-.809 4.119-.809 2.159 0 3.854.473 5.085 1.42 1.241.947 2.122 2.197 2.643 3.75ZM737.599 507v-21.818h3.353V507h-3.353Zm1.705-25.455a2.382 2.382 0 0 1-1.69-.667c-.464-.445-.696-.98-.696-1.605s.232-1.16.696-1.605a2.383 2.383 0 0 1 1.69-.668c.653 0 1.212.223 1.676.668.474.445.71.98.71 1.605s-.236 1.16-.71 1.605a2.335 2.335 0 0 1-1.676.667Zm17.276 3.637v2.841h-11.307v-2.841h11.307Zm-8.011-5.227h3.352v20.795c0 .947.137 1.657.412 2.131.284.464.644.776 1.08.937.445.152.913.227 1.406.227.369 0 .672-.018.909-.056l.568-.114.682 3.011a6.681 6.681 0 0 1-.952.256c-.407.095-.923.142-1.548.142a6.75 6.75 0 0 1-2.784-.611 5.517 5.517 0 0 1-2.244-1.861c-.588-.833-.881-1.884-.881-3.153v-21.704Zm33.452 27.5c-2.103 0-3.916-.464-5.441-1.393-1.515-.937-2.684-2.244-3.508-3.92-.815-1.686-1.222-3.646-1.222-5.881 0-2.234.407-4.204 1.222-5.909.824-1.714 1.969-3.049 3.437-4.005 1.478-.966 3.201-1.449 5.171-1.449 1.136 0 2.258.189 3.366.568 1.108.379 2.117.994 3.026 1.846.909.843 1.633 1.961 2.173 3.353.54 1.392.81 3.106.81 5.142v1.42h-16.818v-2.897h13.409c0-1.232-.247-2.33-.739-3.296a5.565 5.565 0 0 0-2.074-2.287c-.89-.559-1.941-.838-3.153-.838-1.336 0-2.491.332-3.466.994a6.538 6.538 0 0 0-2.23 2.557 7.51 7.51 0 0 0-.782 3.381v1.932c0 1.647.285 3.044.853 4.19.577 1.136 1.378 2.003 2.4 2.599 1.023.588 2.211.881 3.566.881.88 0 1.676-.123 2.386-.369a5.123 5.123 0 0 0 1.861-1.136c.521-.512.923-1.146 1.207-1.904l3.239.909a7.177 7.177 0 0 1-1.719 2.898c-.805.824-1.799 1.468-2.983 1.932-1.184.454-2.514.682-3.991.682Zm20.554.056c-1.383 0-2.638-.26-3.765-.781-1.127-.53-2.021-1.292-2.684-2.287-.663-1.004-.995-2.216-.995-3.636 0-1.25.247-2.263.739-3.04a5.224 5.224 0 0 1 1.974-1.847 10.384 10.384 0 0 1 2.728-.994 33.458 33.458 0 0 1 3.025-.54c1.326-.17 2.401-.298 3.225-.383.833-.095 1.439-.251 1.818-.469.388-.218.582-.597.582-1.136v-.114c0-1.401-.383-2.49-1.15-3.267-.758-.776-1.908-1.165-3.452-1.165-1.6 0-2.855.351-3.764 1.051-.909.701-1.548 1.449-1.918 2.245l-3.182-1.137c.569-1.325 1.326-2.358 2.273-3.096a8.53 8.53 0 0 1 3.125-1.563 12.973 12.973 0 0 1 3.352-.454c.701 0 1.506.085 2.415.255a7.73 7.73 0 0 1 2.656 1.009c.862.511 1.577 1.283 2.145 2.315.568 1.032.853 2.415.853 4.148V507h-3.353v-2.955h-.17c-.227.474-.606.981-1.137 1.52-.53.54-1.235.999-2.116 1.378-.881.379-1.955.568-3.224.568Zm.511-3.011c1.326 0 2.443-.26 3.352-.781.919-.521 1.61-1.193 2.074-2.017.474-.824.71-1.691.71-2.6v-3.068c-.142.171-.454.327-.937.469-.474.132-1.023.251-1.648.355-.615.095-1.217.18-1.804.256-.578.066-1.046.123-1.406.17-.871.114-1.686.298-2.443.554-.748.246-1.355.62-1.819 1.122-.454.493-.681 1.165-.681 2.017 0 1.165.431 2.046 1.292 2.642.871.587 1.975.881 3.31.881Zm31.062-14.432-3.012.852a5.585 5.585 0 0 0-.838-1.463c-.36-.483-.852-.88-1.477-1.193-.625-.312-1.425-.469-2.401-.469-1.335 0-2.447.308-3.338.924-.88.606-1.321 1.378-1.321 2.315 0 .833.303 1.492.909 1.975.607.482 1.553.885 2.841 1.207l3.239.795c1.951.474 3.404 1.198 4.361 2.174.956.966 1.434 2.211 1.434 3.735 0 1.25-.359 2.368-1.079 3.353-.71.985-1.705 1.761-2.983 2.329-1.278.568-2.765.853-4.46.853-2.226 0-4.068-.483-5.526-1.449-1.458-.966-2.381-2.377-2.77-4.233l3.182-.796c.303 1.175.876 2.055 1.719 2.642.852.587 1.965.881 3.338.881 1.562 0 2.803-.331 3.722-.994.928-.673 1.392-1.478 1.392-2.415 0-.758-.266-1.392-.796-1.903-.53-.521-1.345-.91-2.443-1.165l-3.636-.853c-1.999-.473-3.466-1.207-4.404-2.201-.928-1.004-1.392-2.259-1.392-3.764 0-1.232.346-2.321 1.037-3.267.701-.947 1.652-1.691 2.855-2.231 1.212-.539 2.585-.809 4.119-.809 2.16 0 3.855.473 5.086 1.42 1.24.947 2.121 2.197 2.642 3.75Zm7.603 25.114a7.393 7.393 0 0 1-1.52-.142c-.445-.085-.753-.171-.923-.256l.852-2.954c.814.208 1.534.284 2.159.227.625-.057 1.179-.336 1.662-.838.492-.493.942-1.293 1.349-2.401l.625-1.704-8.068-21.932h3.636l6.023 17.386h.227l6.023-17.386h3.637l-9.262 25c-.417 1.127-.933 2.059-1.548 2.798-.616.748-1.331 1.302-2.145 1.662-.805.36-1.714.54-2.727.54Zm-749.194 18v2.841H81.25v-2.841h11.307Zm-8.011-5.227h3.352v20.795c0 .947.137 1.657.412 2.131.284.464.644.776 1.08.937a4.32 4.32 0 0 0 1.406.227c.369 0 .672-.018.908-.056l.569-.114.681 3.011a6.675 6.675 0 0 1-.951.256c-.407.095-.924.142-1.549.142a6.75 6.75 0 0 1-2.783-.611 5.524 5.524 0 0 1-2.245-1.861c-.587-.833-.88-1.884-.88-3.153v-21.704Zm21.683 27.5c-1.97 0-3.698-.469-5.185-1.407-1.477-.937-2.632-2.249-3.466-3.934-.824-1.686-1.236-3.656-1.236-5.909 0-2.273.412-4.257 1.236-5.952.834-1.695 1.989-3.012 3.466-3.949 1.487-.938 3.215-1.406 5.185-1.406 1.969 0 3.693.468 5.17 1.406 1.487.937 2.642 2.254 3.466 3.949.833 1.695 1.25 3.679 1.25 5.952 0 2.253-.417 4.223-1.25 5.909-.824 1.685-1.979 2.997-3.466 3.934-1.477.938-3.201 1.407-5.17 1.407Zm0-3.012c1.496 0 2.727-.383 3.693-1.15.966-.767 1.681-1.776 2.145-3.026.464-1.25.696-2.604.696-4.062 0-1.459-.232-2.818-.696-4.077-.464-1.26-1.179-2.278-2.145-3.054-.966-.777-2.197-1.165-3.693-1.165-1.497 0-2.728.388-3.693 1.165-.966.776-1.681 1.794-2.145 3.054-.464 1.259-.696 2.618-.696 4.077 0 1.458.232 2.812.696 4.062.464 1.25 1.179 2.259 2.145 3.026.965.767 2.196 1.15 3.693 1.15Zm35.117 3.012c-2.046 0-3.807-.483-5.284-1.449-1.477-.966-2.614-2.297-3.409-3.992-.796-1.695-1.193-3.631-1.193-5.809 0-2.216.407-4.172 1.221-5.867.824-1.704 1.97-3.035 3.438-3.991 1.477-.966 3.2-1.449 5.17-1.449 1.534 0 2.917.284 4.148.852 1.231.568 2.239 1.364 3.025 2.386.786 1.023 1.274 2.216 1.463 3.58h-3.352c-.256-.994-.824-1.875-1.704-2.642-.872-.777-2.046-1.165-3.523-1.165-1.307 0-2.453.341-3.438 1.023-.975.672-1.737 1.624-2.287 2.855-.539 1.222-.809 2.656-.809 4.304 0 1.686.265 3.153.795 4.403.54 1.25 1.298 2.221 2.273 2.912.985.692 2.14 1.037 3.466 1.037.871 0 1.662-.151 2.372-.454a4.894 4.894 0 0 0 1.804-1.307c.492-.568.843-1.25 1.051-2.046h3.352a7.76 7.76 0 0 1-1.406 3.48c-.738 1.023-1.719 1.838-2.94 2.444-1.212.596-2.623.895-4.233.895Zm13.48-.455v-21.818h3.239v3.295h.227c.398-1.079 1.117-1.955 2.159-2.628 1.042-.672 2.216-1.008 3.523-1.008.246 0 .554.005.923.014.369.01.649.024.838.043v3.409a9.753 9.753 0 0 0-.781-.128 7.722 7.722 0 0 0-1.264-.099c-1.061 0-2.008.222-2.841.667a5.044 5.044 0 0 0-1.961 1.818c-.473.767-.71 1.643-.71 2.628V555h-3.352Zm23.366.455c-2.102 0-3.915-.464-5.44-1.393-1.515-.937-2.685-2.244-3.508-3.92-.815-1.686-1.222-3.646-1.222-5.881 0-2.234.407-4.204 1.222-5.909.823-1.714 1.969-3.049 3.437-4.005 1.477-.966 3.201-1.449 5.171-1.449 1.136 0 2.258.189 3.366.568 1.108.379 2.117.994 3.026 1.846.909.843 1.633 1.961 2.173 3.353.54 1.392.81 3.106.81 5.142v1.42h-16.819v-2.897h13.409c0-1.232-.246-2.33-.738-3.296a5.565 5.565 0 0 0-2.074-2.287c-.89-.559-1.941-.838-3.153-.838-1.336 0-2.491.332-3.466.994a6.538 6.538 0 0 0-2.23 2.557 7.51 7.51 0 0 0-.782 3.381v1.932c0 1.647.284 3.044.853 4.19.577 1.136 1.377 2.003 2.4 2.599 1.023.588 2.211.881 3.565.881.881 0 1.677-.123 2.387-.369a5.123 5.123 0 0 0 1.861-1.136c.52-.512.923-1.146 1.207-1.904l3.239.909a7.177 7.177 0 0 1-1.719 2.898c-.805.824-1.799 1.468-2.983 1.932-1.184.454-2.514.682-3.992.682Zm20.554.056c-1.382 0-2.637-.26-3.764-.781-1.127-.53-2.022-1.292-2.684-2.287-.663-1.004-.995-2.216-.995-3.636 0-1.25.246-2.263.739-3.04a5.216 5.216 0 0 1 1.974-1.847 10.384 10.384 0 0 1 2.728-.994 33.396 33.396 0 0 1 3.025-.54c1.326-.17 2.401-.298 3.225-.383.833-.095 1.439-.251 1.818-.469.388-.218.582-.597.582-1.136v-.114c0-1.401-.383-2.49-1.15-3.267-.758-.776-1.909-1.165-3.452-1.165-1.6 0-2.855.351-3.764 1.051-.909.701-1.549 1.449-1.918 2.245l-3.182-1.137c.568-1.325 1.326-2.358 2.273-3.096a8.523 8.523 0 0 1 3.125-1.563 12.973 12.973 0 0 1 3.352-.454c.701 0 1.506.085 2.415.255a7.73 7.73 0 0 1 2.656 1.009c.862.511 1.577 1.283 2.145 2.315.568 1.032.852 2.415.852 4.148V555h-3.352v-2.955h-.17c-.228.474-.606.981-1.137 1.52-.53.54-1.235.999-2.116 1.378-.881.379-1.956.568-3.225.568Zm.512-3.011c1.326 0 2.443-.26 3.352-.781.919-.521 1.61-1.193 2.074-2.017.473-.824.71-1.691.71-2.6v-3.068c-.142.171-.454.327-.937.469-.474.132-1.023.251-1.648.355-.616.095-1.217.18-1.804.256-.578.066-1.046.123-1.406.17-.871.114-1.686.298-2.443.554-.749.246-1.355.62-1.819 1.122-.454.493-.681 1.165-.681 2.017 0 1.165.43 2.046 1.292 2.642.871.587 1.975.881 3.31.881Zm25.096-19.318v2.841h-11.307v-2.841h11.307Zm-8.012-5.227h3.353v20.795c0 .947.137 1.657.412 2.131.284.464.643.776 1.079.937a4.32 4.32 0 0 0 1.406.227c.37 0 .673-.018.909-.056l.569-.114.681 3.011a6.661 6.661 0 0 1-.951.256c-.407.095-.924.142-1.549.142a6.75 6.75 0 0 1-2.784-.611 5.53 5.53 0 0 1-2.244-1.861c-.587-.833-.881-1.884-.881-3.153v-21.704Zm21.968 27.5c-2.103 0-3.916-.464-5.441-1.393-1.515-.937-2.684-2.244-3.508-3.92-.815-1.686-1.222-3.646-1.222-5.881 0-2.234.407-4.204 1.222-5.909.824-1.714 1.969-3.049 3.437-4.005 1.478-.966 3.201-1.449 5.171-1.449 1.136 0 2.258.189 3.366.568 1.108.379 2.117.994 3.026 1.846.909.843 1.633 1.961 2.173 3.353.54 1.392.81 3.106.81 5.142v1.42h-16.818v-2.897h13.409c0-1.232-.247-2.33-.739-3.296a5.565 5.565 0 0 0-2.074-2.287c-.89-.559-1.941-.838-3.153-.838-1.335 0-2.491.332-3.466.994a6.546 6.546 0 0 0-2.23 2.557 7.51 7.51 0 0 0-.782 3.381v1.932c0 1.647.285 3.044.853 4.19.577 1.136 1.378 2.003 2.4 2.599 1.023.588 2.211.881 3.566.881.88 0 1.676-.123 2.386-.369a5.123 5.123 0 0 0 1.861-1.136c.521-.512.923-1.146 1.207-1.904l3.239.909a7.177 7.177 0 0 1-1.719 2.898c-.805.824-1.799 1.468-2.983 1.932-1.184.454-2.514.682-3.991.682Zm25.383 7.727v-30h3.239v3.466h.398c.246-.379.587-.862 1.022-1.449.445-.597 1.08-1.127 1.904-1.591.833-.474 1.96-.71 3.38-.71 1.837 0 3.457.459 4.858 1.378 1.402.918 2.496 2.22 3.282 3.906.786 1.685 1.179 3.674 1.179 5.966 0 2.31-.393 4.313-1.179 6.008-.786 1.686-1.875 2.993-3.267 3.921-1.393.918-2.998 1.378-4.816 1.378-1.401 0-2.523-.232-3.366-.696-.843-.474-1.492-1.009-1.946-1.606a21.432 21.432 0 0 1-1.051-1.505h-.285v11.534h-3.352Zm3.296-19.091c0 1.648.241 3.101.724 4.361.483 1.25 1.189 2.23 2.117 2.94.928.701 2.064 1.051 3.409 1.051 1.401 0 2.571-.369 3.508-1.108.947-.748 1.657-1.752 2.131-3.011.483-1.269.724-2.68.724-4.233 0-1.534-.236-2.917-.71-4.148-.464-1.24-1.169-2.22-2.116-2.94-.938-.729-2.117-1.094-3.537-1.094-1.364 0-2.51.346-3.438 1.037-.928.682-1.629 1.638-2.102 2.869-.474 1.222-.71 2.647-.71 4.276ZM288.068 555v-21.818h3.352V555h-3.352Zm1.705-25.455a2.385 2.385 0 0 1-1.691-.667c-.464-.445-.696-.98-.696-1.605s.232-1.16.696-1.605a2.386 2.386 0 0 1 1.691-.668c.653 0 1.212.223 1.676.668.473.445.71.98.71 1.605s-.237 1.16-.71 1.605a2.335 2.335 0 0 1-1.676.667Zm16.935 25.91c-2.102 0-3.916-.464-5.44-1.393-1.515-.937-2.685-2.244-3.509-3.92-.814-1.686-1.221-3.646-1.221-5.881 0-2.234.407-4.204 1.221-5.909.824-1.714 1.97-3.049 3.438-4.005 1.477-.966 3.2-1.449 5.17-1.449 1.137 0 2.259.189 3.367.568 1.108.379 2.116.994 3.025 1.846.909.843 1.634 1.961 2.174 3.353.539 1.392.809 3.106.809 5.142v1.42h-16.818v-2.897h13.409c0-1.232-.246-2.33-.739-3.296a5.563 5.563 0 0 0-2.073-2.287c-.891-.559-1.942-.838-3.154-.838-1.335 0-2.49.332-3.466.994a6.546 6.546 0 0 0-2.23 2.557 7.509 7.509 0 0 0-.781 3.381v1.932c0 1.647.284 3.044.852 4.19.578 1.136 1.378 2.003 2.401 2.599 1.022.588 2.211.881 3.565.881.881 0 1.676-.123 2.386-.369a5.123 5.123 0 0 0 1.861-1.136c.521-.512.924-1.146 1.208-1.904l3.238.909a7.186 7.186 0 0 1-1.718 2.898c-.805.824-1.8 1.468-2.983 1.932-1.184.454-2.515.682-3.992.682Zm31.804.056c-1.383 0-2.637-.26-3.764-.781-1.127-.53-2.022-1.292-2.685-2.287-.663-1.004-.994-2.216-.994-3.636 0-1.25.246-2.263.739-3.04a5.216 5.216 0 0 1 1.974-1.847 10.39 10.39 0 0 1 2.727-.994 33.48 33.48 0 0 1 3.026-.54c1.326-.17 2.4-.298 3.224-.383.834-.095 1.44-.251 1.818-.469.389-.218.583-.597.583-1.136v-.114c0-1.401-.384-2.49-1.151-3.267-.757-.776-1.908-1.165-3.451-1.165-1.601 0-2.856.351-3.765 1.051-.909.701-1.548 1.449-1.917 2.245l-3.182-1.137c.568-1.325 1.326-2.358 2.273-3.096a8.523 8.523 0 0 1 3.125-1.563 12.968 12.968 0 0 1 3.352-.454c.701 0 1.506.085 2.415.255a7.738 7.738 0 0 1 2.656 1.009c.862.511 1.577 1.283 2.145 2.315.568 1.032.852 2.415.852 4.148V555h-3.352v-2.955h-.171c-.227.474-.606.981-1.136 1.52-.53.54-1.236.999-2.116 1.378-.881.379-1.956.568-3.225.568Zm.511-3.011c1.326 0 2.444-.26 3.353-.781.918-.521 1.61-1.193 2.074-2.017.473-.824.71-1.691.71-2.6v-3.068c-.142.171-.455.327-.938.469-.473.132-1.022.251-1.647.355-.616.095-1.217.18-1.804.256-.578.066-1.047.123-1.407.17-.871.114-1.685.298-2.443.554-.748.246-1.354.62-1.818 1.122-.455.493-.682 1.165-.682 2.017 0 1.165.431 2.046 1.293 2.642.871.587 1.974.881 3.309.881Zm18.96-10.625V555h-3.352v-21.818h3.238v3.409h.284a6.239 6.239 0 0 1 2.33-2.671c1.042-.681 2.386-1.022 4.034-1.022 1.477 0 2.77.303 3.878.909 1.108.596 1.97 1.505 2.585 2.727.616 1.212.923 2.746.923 4.602V555h-3.352v-13.636c0-1.714-.445-3.05-1.335-4.006-.89-.966-2.112-1.449-3.665-1.449-1.07 0-2.026.232-2.869.696-.834.464-1.492 1.141-1.975 2.031-.483.891-.724 1.97-.724 3.239Zm28.285 13.58c-1.818 0-3.424-.46-4.816-1.378-1.392-.928-2.481-2.235-3.267-3.921-.786-1.695-1.179-3.698-1.179-6.008 0-2.292.393-4.281 1.179-5.966.786-1.686 1.88-2.988 3.282-3.906 1.401-.919 3.02-1.378 4.858-1.378 1.42 0 2.542.236 3.366.71.833.464 1.468.994 1.903 1.591.446.587.791 1.07 1.037 1.449h.284v-10.739h3.353V555h-3.239v-3.352h-.398c-.246.397-.596.899-1.051 1.505-.454.597-1.103 1.132-1.946 1.606-.843.464-1.965.696-3.366.696Zm.454-3.012c1.345 0 2.481-.35 3.409-1.051.928-.71 1.634-1.69 2.117-2.94.483-1.26.724-2.713.724-4.361 0-1.629-.236-3.054-.71-4.276-.473-1.231-1.174-2.187-2.102-2.869-.928-.691-2.074-1.037-3.438-1.037-1.42 0-2.604.365-3.551 1.094-.937.72-1.643 1.7-2.116 2.94-.464 1.231-.696 2.614-.696 4.148 0 1.553.236 2.964.71 4.233.483 1.259 1.193 2.263 2.131 3.011.947.739 2.121 1.108 3.522 1.108Zm35.64 3.012c-1.819 0-3.424-.46-4.816-1.378-1.392-.928-2.481-2.235-3.267-3.921-.786-1.695-1.179-3.698-1.179-6.008 0-2.292.393-4.281 1.179-5.966.786-1.686 1.88-2.988 3.281-3.906 1.402-.919 3.021-1.378 4.858-1.378 1.421 0 2.543.236 3.367.71.833.464 1.468.994 1.903 1.591.445.587.791 1.07 1.037 1.449h.284v-10.739h3.353V555h-3.239v-3.352h-.398c-.246.397-.596.899-1.051 1.505-.455.597-1.103 1.132-1.946 1.606-.843.464-1.965.696-3.366.696Zm.454-3.012c1.345 0 2.481-.35 3.409-1.051.928-.71 1.634-1.69 2.117-2.94.483-1.26.724-2.713.724-4.361 0-1.629-.237-3.054-.71-4.276-.474-1.231-1.174-2.187-2.102-2.869-.928-.691-2.074-1.037-3.438-1.037-1.42 0-2.604.365-3.551 1.094-.938.72-1.643 1.7-2.117 2.94-.464 1.231-.696 2.614-.696 4.148 0 1.553.237 2.964.711 4.233.483 1.259 1.193 2.263 2.13 3.011.947.739 2.122 1.108 3.523 1.108Zm25.014 3.012c-1.969 0-3.698-.469-5.184-1.407-1.478-.937-2.633-2.249-3.466-3.934-.824-1.686-1.236-3.656-1.236-5.909 0-2.273.412-4.257 1.236-5.952.833-1.695 1.988-3.012 3.466-3.949 1.486-.938 3.215-1.406 5.184-1.406 1.97 0 3.693.468 5.171 1.406 1.486.937 2.642 2.254 3.466 3.949.833 1.695 1.25 3.679 1.25 5.952 0 2.253-.417 4.223-1.25 5.909-.824 1.685-1.98 2.997-3.466 3.934-1.478.938-3.201 1.407-5.171 1.407Zm0-3.012c1.496 0 2.728-.383 3.693-1.15.966-.767 1.681-1.776 2.145-3.026.464-1.25.696-2.604.696-4.062 0-1.459-.232-2.818-.696-4.077-.464-1.26-1.179-2.278-2.145-3.054-.965-.777-2.197-1.165-3.693-1.165s-2.727.388-3.693 1.165c-.966.776-1.681 1.794-2.145 3.054-.464 1.259-.696 2.618-.696 4.077 0 1.458.232 2.812.696 4.062.464 1.25 1.179 2.259 2.145 3.026.966.767 2.197 1.15 3.693 1.15Zm18.356-10.568V555h-3.352v-21.818h3.238v3.409h.285a6.23 6.23 0 0 1 2.329-2.671c1.042-.681 2.386-1.022 4.034-1.022 1.477 0 2.77.303 3.878.909 1.108.596 1.97 1.505 2.585 2.727.616 1.212.924 2.746.924 4.602V555h-3.353v-13.636c0-1.714-.445-3.05-1.335-4.006-.89-.966-2.112-1.449-3.665-1.449-1.07 0-2.026.232-2.869.696-.833.464-1.492 1.141-1.974 2.031-.483.891-.725 1.97-.725 3.239Zm33.796 4.205v-12.898h3.353V555h-3.353v-3.693h-.227c-.511 1.108-1.307 2.05-2.386 2.827-1.08.767-2.444 1.15-4.091 1.15-1.364 0-2.576-.298-3.637-.895-1.06-.606-1.894-1.515-2.5-2.727-.606-1.222-.909-2.76-.909-4.617v-13.863h3.353v13.636c0 1.591.445 2.86 1.335 3.807.899.947 2.045 1.42 3.437 1.42.834 0 1.681-.213 2.543-.639.871-.426 1.6-1.079 2.187-1.96.597-.881.895-2.003.895-3.366Zm18.981-12.898v2.841h-11.307v-2.841h11.307Zm-8.011-5.227h3.352v20.795c0 .947.137 1.657.412 2.131.284.464.644.776 1.079.937.446.152.914.227 1.407.227.369 0 .672-.018.909-.056l.568-.114.682 3.011a6.681 6.681 0 0 1-.952.256c-.407.095-.923.142-1.548.142a6.75 6.75 0 0 1-2.784-.611 5.526 5.526 0 0 1-2.245-1.861c-.587-.833-.88-1.884-.88-3.153v-21.704Zm33.167 27.5c-2.045 0-3.806-.483-5.284-1.449-1.477-.966-2.613-2.297-3.409-3.992-.795-1.695-1.193-3.631-1.193-5.809 0-2.216.407-4.172 1.222-5.867.823-1.704 1.969-3.035 3.437-3.991 1.477-.966 3.201-1.449 5.17-1.449 1.535 0 2.917.284 4.148.852 1.231.568 2.24 1.364 3.026 2.386.786 1.023 1.273 2.216 1.463 3.58h-3.352c-.256-.994-.824-1.875-1.705-2.642-.871-.777-2.045-1.165-3.523-1.165-1.306 0-2.452.341-3.437 1.023-.976.672-1.738 1.624-2.287 2.855-.54 1.222-.81 2.656-.81 4.304 0 1.686.265 3.153.796 4.403.539 1.25 1.297 2.221 2.272 2.912.985.692 2.141 1.037 3.466 1.037.872 0 1.662-.151 2.372-.454a4.886 4.886 0 0 0 1.804-1.307c.493-.568.843-1.25 1.052-2.046h3.352a7.772 7.772 0 0 1-1.406 3.48c-.739 1.023-1.719 1.838-2.941 2.444-1.212.596-2.623.895-4.233.895Zm16.833-13.58V555h-3.353v-29.091h3.353v10.682h.284a6.164 6.164 0 0 1 2.301-2.685c1.032-.672 2.405-1.008 4.119-1.008 1.487 0 2.789.298 3.906.895 1.118.587 1.984 1.491 2.6 2.713.625 1.212.937 2.755.937 4.63V555h-3.352v-13.636c0-1.733-.45-3.073-1.349-4.02-.89-.957-2.126-1.435-3.708-1.435-1.098 0-2.083.232-2.954.696-.862.464-1.544 1.141-2.046 2.031-.492.891-.738 1.97-.738 3.239Zm26.701 13.636c-1.383 0-2.638-.26-3.765-.781-1.126-.53-2.021-1.292-2.684-2.287-.663-1.004-.994-2.216-.994-3.636 0-1.25.246-2.263.738-3.04a5.226 5.226 0 0 1 1.975-1.847 10.377 10.377 0 0 1 2.727-.994 33.458 33.458 0 0 1 3.025-.54c1.326-.17 2.401-.298 3.225-.383.833-.095 1.439-.251 1.818-.469.388-.218.582-.597.582-1.136v-.114c0-1.401-.383-2.49-1.15-3.267-.758-.776-1.908-1.165-3.452-1.165-1.6 0-2.855.351-3.764 1.051-.909.701-1.548 1.449-1.918 2.245l-3.181-1.137c.568-1.325 1.325-2.358 2.272-3.096a8.53 8.53 0 0 1 3.125-1.563 12.98 12.98 0 0 1 3.353-.454c.7 0 1.505.085 2.414.255a7.743 7.743 0 0 1 2.657 1.009c.861.511 1.576 1.283 2.144 2.315.569 1.032.853 2.415.853 4.148V555H594.3v-2.955h-.17c-.227.474-.606.981-1.136 1.52-.531.54-1.236.999-2.117 1.378-.881.379-1.955.568-3.224.568Zm.511-3.011c1.326 0 2.443-.26 3.352-.781.919-.521 1.61-1.193 2.074-2.017.474-.824.71-1.691.71-2.6v-3.068c-.142.171-.454.327-.937.469-.474.132-1.023.251-1.648.355-.615.095-1.217.18-1.804.256-.577.066-1.046.123-1.406.17-.871.114-1.686.298-2.443.554-.748.246-1.354.62-1.818 1.122-.455.493-.682 1.165-.682 2.017 0 1.165.431 2.046 1.292 2.642.872.587 1.975.881 3.31.881Zm15.607 2.5v-21.818h3.239v3.295h.227c.398-1.079 1.118-1.955 2.159-2.628 1.042-.672 2.216-1.008 3.523-1.008.246 0 .554.005.923.014.37.01.649.024.838.043v3.409a9.669 9.669 0 0 0-.781-.128 7.722 7.722 0 0 0-1.264-.099c-1.061 0-2.008.222-2.841.667a5.041 5.041 0 0 0-1.96 1.818c-.474.767-.71 1.643-.71 2.628V555h-3.353Zm25.739-21.818v2.841h-11.307v-2.841h11.307Zm-8.011-5.227h3.352v20.795c0 .947.137 1.657.412 2.131.284.464.644.776 1.079.937.445.152.914.227 1.407.227.369 0 .672-.018.909-.056l.568-.114.682 3.011a6.719 6.719 0 0 1-.952.256c-.407.095-.923.142-1.548.142a6.75 6.75 0 0 1-2.784-.611 5.526 5.526 0 0 1-2.245-1.861c-.587-.833-.88-1.884-.88-3.153v-21.704Zm28.117 10.113-3.011.852a5.614 5.614 0 0 0-.838-1.463c-.36-.483-.852-.88-1.477-1.193-.625-.312-1.425-.469-2.401-.469-1.335 0-2.448.308-3.338.924-.881.606-1.321 1.378-1.321 2.315 0 .833.303 1.492.909 1.975.606.482 1.553.885 2.841 1.207l3.239.795c1.951.474 3.404 1.198 4.361 2.174.956.966 1.434 2.211 1.434 3.735 0 1.25-.36 2.368-1.079 3.353-.711.985-1.705 1.761-2.983 2.329-1.279.568-2.765.853-4.461.853-2.225 0-4.067-.483-5.525-1.449-1.458-.966-2.382-2.377-2.77-4.233l3.182-.796c.303 1.175.876 2.055 1.719 2.642.852.587 1.965.881 3.338.881 1.562 0 2.803-.331 3.721-.994.928-.673 1.392-1.478 1.392-2.415 0-.758-.265-1.392-.795-1.903-.53-.521-1.345-.91-2.443-1.165l-3.637-.853c-1.998-.473-3.466-1.207-4.403-2.201-.928-1.004-1.392-2.259-1.392-3.764 0-1.232.345-2.321 1.037-3.267.701-.947 1.652-1.691 2.855-2.231 1.212-.539 2.585-.809 4.119-.809 2.159 0 3.854.473 5.085 1.42 1.241.947 2.122 2.197 2.642 3.75Zm7.888 17.159a2.459 2.459 0 0 1-1.804-.753 2.459 2.459 0 0 1-.753-1.804c0-.7.251-1.302.753-1.804a2.462 2.462 0 0 1 1.804-.752c.7 0 1.302.251 1.804.752.501.502.752 1.104.752 1.804 0 .464-.118.891-.355 1.279a2.646 2.646 0 0 1-.923.937 2.43 2.43 0 0 1-1.278.341Z"/><path fill="#252525" d="M85.057 403v-58.182h22.954c4.413 0 8.173.843 11.279 2.529 3.106 1.666 5.473 3.986 7.102 6.96 1.648 2.954 2.472 6.363 2.472 10.227s-.834 7.273-2.5 10.227c-1.667 2.955-4.082 5.256-7.245 6.904-3.144 1.647-6.95 2.471-11.42 2.471h-14.63v-9.858h12.641c2.368 0 4.318-.407 5.852-1.221 1.554-.834 2.709-1.979 3.466-3.438.777-1.477 1.165-3.172 1.165-5.085 0-1.932-.388-3.617-1.165-5.057-.757-1.458-1.912-2.585-3.466-3.38-1.553-.815-3.522-1.222-5.909-1.222h-8.295V403H85.057Zm64.098-58.182V403h-12.301v-58.182h12.301ZM159.276 403v-58.182h39.204v10.142h-26.903v13.864h24.886v10.142h-24.886v13.892h27.017V403h-39.318Zm75.944-33.892v9.602h-26.534v-9.602h26.534ZM266.385 403H245.76v-58.182h20.795c5.853 0 10.891 1.165 15.114 3.494 4.224 2.311 7.472 5.635 9.744 9.972 2.292 4.337 3.438 9.527 3.438 15.568 0 6.061-1.146 11.269-3.438 15.625-2.272 4.356-5.539 7.699-9.801 10.029-4.242 2.329-9.318 3.494-15.227 3.494Zm-8.324-10.54h7.813c3.636 0 6.695-.644 9.176-1.932 2.5-1.306 4.375-3.323 5.625-6.051 1.269-2.746 1.903-6.288 1.903-10.625 0-4.299-.634-7.812-1.903-10.54-1.25-2.727-3.116-4.734-5.597-6.022-2.481-1.288-5.54-1.932-9.176-1.932h-7.841v37.102Zm99.368-18.551c0 6.345-1.203 11.743-3.608 16.193-2.386 4.451-5.644 7.851-9.773 10.199-4.11 2.33-8.731 3.494-13.863 3.494-5.171 0-9.811-1.174-13.921-3.522-4.11-2.349-7.358-5.748-9.744-10.199s-3.58-9.839-3.58-16.165c0-6.345 1.194-11.742 3.58-16.193 2.386-4.451 5.634-7.841 9.744-10.171 4.11-2.348 8.75-3.522 13.921-3.522 5.132 0 9.753 1.174 13.863 3.522 4.129 2.33 7.387 5.72 9.773 10.171 2.405 4.451 3.608 9.848 3.608 16.193Zm-12.472 0c0-4.11-.615-7.576-1.846-10.398-1.212-2.822-2.926-4.962-5.142-6.42-2.216-1.458-4.811-2.188-7.784-2.188-2.974 0-5.569.73-7.784 2.188-2.216 1.458-3.94 3.598-5.171 6.42-1.212 2.822-1.818 6.288-1.818 10.398 0 4.11.606 7.576 1.818 10.398 1.231 2.822 2.955 4.962 5.171 6.42 2.215 1.459 4.81 2.188 7.784 2.188 2.973 0 5.568-.729 7.784-2.188 2.216-1.458 3.93-3.598 5.142-6.42 1.231-2.822 1.846-6.288 1.846-10.398Zm70.249-29.091V403h-10.625l-25.313-36.619h-.426V403h-12.301v-58.182h10.796l25.113 36.591h.512v-36.591h12.244Zm46.101 0h12.301v37.784c0 4.243-1.013 7.955-3.04 11.137-2.007 3.181-4.82 5.663-8.437 7.443-3.618 1.761-7.832 2.642-12.642 2.642-4.83 0-9.053-.881-12.671-2.642-3.617-1.78-6.43-4.262-8.437-7.443-2.008-3.182-3.012-6.894-3.012-11.137v-37.784h12.301v36.733c0 2.216.483 4.186 1.449 5.909.985 1.724 2.368 3.078 4.148 4.063 1.78.985 3.854 1.477 6.222 1.477 2.386 0 4.46-.492 6.221-1.477 1.781-.985 3.154-2.339 4.12-4.063.984-1.723 1.477-3.693 1.477-5.909v-36.733Zm20.206 10.142v-10.142h47.784v10.142h-17.813V403h-12.159v-48.04h-17.812Zm125.504 10.228h-12.443c-.227-1.61-.691-3.04-1.392-4.29a10.922 10.922 0 0 0-2.699-3.239c-1.099-.89-2.367-1.572-3.807-2.045-1.42-.474-2.964-.711-4.631-.711-3.011 0-5.634.749-7.869 2.245-2.235 1.477-3.968 3.636-5.199 6.477-1.231 2.822-1.846 6.25-1.846 10.284 0 4.148.615 7.633 1.846 10.455 1.25 2.822 2.993 4.952 5.228 6.392 2.234 1.439 4.82 2.159 7.755 2.159 1.648 0 3.173-.218 4.574-.654 1.421-.435 2.68-1.07 3.778-1.903a10.967 10.967 0 0 0 2.728-3.097c.738-1.212 1.25-2.594 1.534-4.147l12.443.056c-.322 2.671-1.127 5.247-2.415 7.728-1.269 2.462-2.983 4.668-5.142 6.619-2.14 1.932-4.697 3.466-7.67 4.602-2.955 1.118-6.298 1.676-10.029 1.676-5.189 0-9.829-1.174-13.92-3.522-4.072-2.349-7.292-5.748-9.659-10.199-2.349-4.451-3.523-9.839-3.523-16.165 0-6.345 1.193-11.742 3.58-16.193 2.386-4.451 5.625-7.841 9.716-10.171 4.09-2.348 8.693-3.522 13.806-3.522 3.372 0 6.497.473 9.375 1.42 2.898.947 5.464 2.33 7.699 4.148 2.235 1.799 4.053 4.006 5.455 6.619 1.42 2.614 2.329 5.606 2.727 8.978ZM615.838 403v-58.182h12.301v24.006h24.972v-24.006h12.273V403h-12.273v-24.034h-24.972V403h-12.301Zm69.716 0h-13.182l20.085-58.182h15.853L728.366 403h-13.181l-14.574-44.886h-.455L685.554 403Zm-.824-22.869h31.136v9.602H684.73v-9.602ZM735.369 403v-58.182h22.955c4.394 0 8.144.786 11.25 2.358 3.125 1.553 5.502 3.76 7.131 6.619 1.647 2.841 2.471 6.184 2.471 10.029 0 3.863-.833 7.187-2.5 9.971-1.667 2.766-4.081 4.887-7.244 6.364-3.144 1.477-6.951 2.216-11.421 2.216h-15.369v-9.886h13.381c2.348 0 4.299-.322 5.852-.966 1.553-.644 2.708-1.61 3.466-2.898.776-1.288 1.165-2.888 1.165-4.801 0-1.932-.389-3.561-1.165-4.886-.758-1.326-1.922-2.33-3.494-3.012-1.553-.701-3.514-1.051-5.881-1.051h-8.296V403h-12.301Zm31.421-26.477L781.25 403h-13.58l-14.147-26.477h13.267Zm18.863-21.563v-10.142h47.785v10.142h-17.813V403h-12.159v-48.04h-17.813Z"/><path fill="#6F6F6F" d="M85.057 315v-58.182h22.954c4.394 0 8.144.786 11.25 2.358 3.125 1.553 5.502 3.76 7.131 6.619 1.648 2.841 2.472 6.184 2.472 10.029 0 3.863-.834 7.187-2.5 9.971-1.667 2.766-4.082 4.887-7.245 6.364-3.144 1.477-6.95 2.216-11.42 2.216h-15.37v-9.886h13.381c2.349 0 4.299-.322 5.852-.966 1.554-.644 2.709-1.61 3.466-2.898.777-1.288 1.165-2.888 1.165-4.801 0-1.932-.388-3.561-1.165-4.886-.757-1.326-1.922-2.33-3.494-3.012-1.553-.701-3.513-1.051-5.881-1.051h-8.295V315H85.057Zm31.42-26.477L130.938 315h-13.58l-14.148-26.477h13.267ZM137.557 315v-58.182h39.204v10.142h-26.903v13.864h24.886v10.142h-24.886v13.892h27.017V315h-39.318Zm59.013 0h-13.182l20.085-58.182h15.852L239.382 315H226.2l-14.574-44.886h-.454L196.57 315Zm-.824-22.869h31.136v9.602h-31.136v-9.602Zm99.24-14.943h-12.443c-.228-1.61-.692-3.04-1.392-4.29a10.922 10.922 0 0 0-2.699-3.239c-1.099-.89-2.368-1.572-3.807-2.045-1.421-.474-2.964-.711-4.631-.711-3.011 0-5.634.749-7.869 2.245-2.235 1.477-3.968 3.636-5.199 6.477-1.231 2.822-1.847 6.25-1.847 10.284 0 4.148.616 7.633 1.847 10.455 1.25 2.822 2.992 4.952 5.227 6.392 2.235 1.439 4.82 2.159 7.756 2.159 1.648 0 3.172-.218 4.574-.654 1.42-.435 2.68-1.07 3.778-1.903a10.967 10.967 0 0 0 2.728-3.097c.738-1.212 1.25-2.594 1.534-4.147l12.443.056c-.322 2.671-1.127 5.247-2.415 7.728-1.269 2.462-2.983 4.668-5.142 6.619-2.14 1.932-4.697 3.466-7.67 4.602-2.955 1.118-6.298 1.676-10.029 1.676-5.189 0-9.829-1.174-13.92-3.522-4.072-2.349-7.292-5.748-9.659-10.199-2.349-4.451-3.523-9.839-3.523-16.165 0-6.345 1.193-11.742 3.579-16.193 2.387-4.451 5.625-7.841 9.716-10.171 4.091-2.348 8.693-3.522 13.807-3.522 3.371 0 6.496.473 9.375 1.42 2.898.947 5.464 2.33 7.699 4.148 2.235 1.799 4.053 4.006 5.455 6.619 1.42 2.614 2.329 5.606 2.727 8.978Zm6.605-10.228v-10.142h47.784v10.142h-17.813V315h-12.159v-48.04h-17.812Z"/><g clip-path="url(#c)"><path fill="url(#d)" d="M860-1h860v797H860z"/><path fill="#2B2D42" fill-rule="evenodd" d="M1412.78 540.435c124.39 0 225.22-100.833 225.22-225.218C1638 190.833 1537.17 90 1412.78 90c-100.24 0-185.18 65.488-214.38 156.014 110.69 16.808 195.51 112.383 195.51 227.769 0 22.539-3.23 44.323-9.27 64.911a227.46 227.46 0 0 0 28.14 1.741Z" clip-rule="evenodd"/><path fill="#9ED8DB" fill-rule="evenodd" d="M1384.65 538.671c6.03-20.581 9.26-42.357 9.26-64.888 0-19.937-2.53-39.282-7.29-57.732l26.16-100.833 194.6 113.377a225.207 225.207 0 0 1-108 94.524 225.185 225.185 0 0 1-114.73 15.552Z" clip-rule="evenodd"/><path fill="#E9FFF9" fill-rule="evenodd" d="M1636.13 344.175a225.203 225.203 0 0 0-21.72-129.305l-201.63 100.348 169.37 148.448a225.156 225.156 0 0 0 53.98-119.491Z" clip-rule="evenodd"/><path fill="#287BC8" fill-rule="evenodd" d="M1198.46 246.023c63.59 9.674 118.64 45.344 153.96 95.829l60.36-26.634 2.17-225.207a225.181 225.181 0 0 0-108.03 26.423 225.17 225.17 0 0 0-82.22 74.901 224.833 224.833 0 0 0-26.24 54.688Z" clip-rule="evenodd"/><path fill="#D64045" fill-rule="evenodd" d="M1532.54 124.476a225.261 225.261 0 0 0-119.76-34.475v225.217l202.84-97.869a225.203 225.203 0 0 0-83.08-92.873Z" clip-rule="evenodd"/><path fill="#D64045" d="M1163 248c39.5 0 78.3 10.396 112.5 30.144a225.064 225.064 0 0 1 82.36 82.356l-68.2 39.375a146.246 146.246 0 0 0-53.54-53.531A146.232 146.232 0 0 0 1163 326.75V248Z"/><path fill="#287BC8" d="M968.144 585.5a224.997 224.997 0 0 1 0-225 225.038 225.038 0 0 1 82.356-82.356c34.2-19.748 73-30.144 112.5-30.144v78.75c-25.67 0-50.89 6.758-73.13 19.594a146.294 146.294 0 0 0-53.53 53.531A146.31 146.31 0 0 0 1016.75 473a146.31 146.31 0 0 0 19.59 73.125L968.144 585.5Z"/><path fill="#2B2D42" d="M1163 698a224.997 224.997 0 0 1-217.333-166.766l76.063-20.382a146.309 146.309 0 0 0 52.24 78.176A146.251 146.251 0 0 0 1163 619.25V698Z"/><path fill="#9ED8DB" d="M1357.86 585.5a225.05 225.05 0 0 1-103.34 93.048 225.014 225.014 0 0 1-138.3 14.535l16.37-77.029a146.28 146.28 0 0 0 89.9-9.448 146.308 146.308 0 0 0 67.17-60.481l68.2 39.375Z"/><path fill="#E9FFF9" d="M1357.86 360.5a225.047 225.047 0 0 1 29.94 121.922 224.995 224.995 0 0 1-40.04 118.989l-64.67-44.944a146.222 146.222 0 0 0 26.03-77.343 146.318 146.318 0 0 0-19.46-79.249l68.2-39.375Z"/><path fill="#424242" d="M1098.74 434.626v75.748h-15.99v-60.547h-.44L1065 460.701v-14.202l18.71-11.873h15.03Zm46.98 76.784a34.11 34.11 0 0 1-11.26-1.961c-3.59-1.282-6.82-3.365-9.67-6.25-2.86-2.885-5.12-6.707-6.79-11.466-1.65-4.759-2.48-10.603-2.48-17.532.03-6.361.75-12.045 2.18-17.05 1.45-5.03 3.52-9.296 6.2-12.798 2.71-3.501 5.95-6.164 9.71-7.989 3.77-1.849 7.99-2.774 12.66-2.774 5.05 0 9.5.987 13.36 2.959 3.87 1.948 6.97 4.599 9.31 7.952 2.36 3.354 3.79 7.114 4.28 11.281h-15.76c-.62-2.638-1.91-4.709-3.88-6.214-1.97-1.504-4.4-2.256-7.31-2.256-4.92 0-8.66 2.146-11.22 6.436-2.53 4.29-3.83 10.122-3.87 17.494h.51a17.576 17.576 0 0 1 4.58-5.732c1.94-1.603 4.15-2.824 6.61-3.662 2.48-.863 5.1-1.295 7.86-1.295 4.48 0 8.46 1.061 11.96 3.181 3.49 2.096 6.25 4.981 8.27 8.655 2.01 3.674 3.02 7.878 3.02 12.612 0 5.129-1.19 9.691-3.58 13.685-2.36 3.995-5.67 7.126-9.93 9.395-4.23 2.244-9.15 3.353-14.76 3.329Zm-.08-12.576c2.47 0 4.67-.592 6.61-1.775 1.95-1.184 3.47-2.786 4.58-4.808 1.11-2.022 1.66-4.291 1.66-6.806 0-2.515-.55-4.771-1.66-6.768a12.48 12.48 0 0 0-4.5-4.772c-1.92-1.183-4.11-1.775-6.57-1.775-1.85 0-3.56.345-5.14 1.036-1.55.69-2.91 1.652-4.09 2.885a13.726 13.726 0 0 0-2.73 4.29c-.67 1.603-1 3.317-1 5.141 0 2.441.55 4.673 1.66 6.695 1.13 2.022 2.66 3.637 4.58 4.845 1.94 1.208 4.14 1.812 6.6 1.812Zm81.06-2.663v-3.994c0-3.033.64-5.819 1.92-8.359a15.284 15.284 0 0 1 5.65-6.14c2.49-1.553 5.51-2.33 9.08-2.33 3.62 0 6.66.764 9.12 2.293 2.49 1.529 4.36 3.575 5.61 6.14 1.28 2.54 1.92 5.338 1.92 8.396v3.994c0 3.033-.64 5.832-1.92 8.396-1.28 2.54-3.16 4.574-5.65 6.103-2.48 1.553-5.51 2.33-9.08 2.33-3.62 0-6.65-.777-9.11-2.33-2.47-1.529-4.34-3.563-5.62-6.103-1.28-2.564-1.92-5.363-1.92-8.396Zm10.75-3.994v3.994c0 1.751.41 3.403 1.25 4.956.86 1.554 2.41 2.331 4.65 2.331s3.77-.765 4.58-2.294c.84-1.528 1.25-3.193 1.25-4.993v-3.994c0-1.8-.39-3.477-1.18-5.03-.78-1.554-2.33-2.331-4.65-2.331-2.21 0-3.75.777-4.61 2.331a10.217 10.217 0 0 0-1.29 5.03Zm-49.54-39.354v-3.994c0-3.058.65-5.856 1.96-8.396 1.3-2.565 3.18-4.611 5.64-6.14 2.49-1.529 5.49-2.293 9.01-2.293 3.64 0 6.69.764 9.15 2.293 2.47 1.529 4.34 3.575 5.62 6.14 1.28 2.54 1.91 5.338 1.91 8.396v3.994c0 3.058-.65 5.856-1.95 8.396-1.28 2.54-3.16 4.574-5.65 6.103-2.46 1.504-5.49 2.256-9.08 2.256s-6.63-.764-9.12-2.293c-2.46-1.553-4.33-3.588-5.61-6.103-1.25-2.54-1.88-5.326-1.88-8.359Zm10.82-3.994v3.994c0 1.8.41 3.465 1.25 4.993.86 1.529 2.37 2.294 4.54 2.294 2.26 0 3.8-.765 4.61-2.294.84-1.528 1.26-3.193 1.26-4.993v-3.994c0-1.8-.39-3.477-1.18-5.03-.79-1.554-2.35-2.331-4.69-2.331-2.19 0-3.7.79-4.54 2.368a10.466 10.466 0 0 0-1.25 4.993Zm-5.95 61.545 51.98-75.748h9.67l-51.98 75.748h-9.67Z"/></g></g><defs><radialGradient id="a" cx="0" cy="0" r="1" gradientTransform="rotate(24.822 -474.041 2154.132) scale(948.085 780.002)" gradientUnits="userSpaceOnUse"><stop stop-color="#fff"/><stop offset="1" stop-color="#BABABA"/></radialGradient><radialGradient id="d" cx="0" cy="0" r="1" gradientTransform="matrix(0 398.5 -430 0 1290 397.5)" gradientUnits="userSpaceOnUse"><stop stop-color="#fff"/><stop offset="1" stop-color="#fff" stop-opacity="0"/></radialGradient><clipPath id="b"><path fill="#fff" d="M0 0h1720v796H0z"/></clipPath><clipPath id="c"><path fill="#fff" d="M0 0h861v796H0z" transform="translate(860)"/></clipPath></defs></svg>